<mxfile host="app.diagrams.net" agent="Mozilla/5.0 (Windows NT 10.0; Win64; x64) AppleWebKit/537.36 (KHTML, like Gecko) Chrome/137.0.0.0 Safari/537.36" version="26.0.14">
  <diagram name="Page-1" id="j6MV_RF953YGdNy2_GVR">
    <mxGraphModel grid="1" page="1" gridSize="10" guides="1" tooltips="1" connect="1" arrows="1" fold="1" pageScale="1" pageWidth="827" pageHeight="1169" math="0" shadow="0">
      <root>
        <mxCell id="0" />
        <mxCell id="1" parent="0" />
        <mxCell id="rF5V9aYuZ9NK1MrLlrQH-9" value="Account&amp;nbsp;" style="rounded=1;arcSize=10;whiteSpace=wrap;html=1;align=center;" vertex="1" parent="1">
          <mxGeometry x="-690" y="150" width="100" height="40" as="geometry" />
        </mxCell>
        <mxCell id="rF5V9aYuZ9NK1MrLlrQH-18" style="edgeStyle=orthogonalEdgeStyle;rounded=0;orthogonalLoop=1;jettySize=auto;html=1;exitX=0.5;exitY=0;exitDx=0;exitDy=0;" edge="1" parent="1" source="rF5V9aYuZ9NK1MrLlrQH-10" target="rF5V9aYuZ9NK1MrLlrQH-9">
          <mxGeometry relative="1" as="geometry" />
        </mxCell>
        <mxCell id="rF5V9aYuZ9NK1MrLlrQH-10" value="cap super vis&amp;nbsp;" style="rounded=1;arcSize=10;whiteSpace=wrap;html=1;align=center;" vertex="1" parent="1">
          <mxGeometry x="-1430" y="250" width="100" height="40" as="geometry" />
        </mxCell>
        <mxCell id="rF5V9aYuZ9NK1MrLlrQH-19" style="edgeStyle=orthogonalEdgeStyle;rounded=0;orthogonalLoop=1;jettySize=auto;html=1;exitX=0.5;exitY=0;exitDx=0;exitDy=0;entryX=0.5;entryY=1;entryDx=0;entryDy=0;" edge="1" parent="1" source="rF5V9aYuZ9NK1MrLlrQH-11" target="rF5V9aYuZ9NK1MrLlrQH-9">
          <mxGeometry relative="1" as="geometry" />
        </mxCell>
        <mxCell id="rF5V9aYuZ9NK1MrLlrQH-11" value="super Admin&amp;nbsp;" style="rounded=1;arcSize=10;whiteSpace=wrap;html=1;align=center;" vertex="1" parent="1">
          <mxGeometry x="-1133" y="250" width="100" height="40" as="geometry" />
        </mxCell>
        <mxCell id="rF5V9aYuZ9NK1MrLlrQH-21" style="edgeStyle=orthogonalEdgeStyle;rounded=0;orthogonalLoop=1;jettySize=auto;html=1;exitX=0.5;exitY=0;exitDx=0;exitDy=0;entryX=0.5;entryY=1;entryDx=0;entryDy=0;" edge="1" parent="1" source="rF5V9aYuZ9NK1MrLlrQH-12" target="rF5V9aYuZ9NK1MrLlrQH-9">
          <mxGeometry relative="1" as="geometry" />
        </mxCell>
        <mxCell id="rF5V9aYuZ9NK1MrLlrQH-12" value="Admin" style="rounded=1;arcSize=10;whiteSpace=wrap;html=1;align=center;" vertex="1" parent="1">
          <mxGeometry x="-580" y="250" width="100" height="40" as="geometry" />
        </mxCell>
        <mxCell id="rF5V9aYuZ9NK1MrLlrQH-22" style="edgeStyle=orthogonalEdgeStyle;rounded=0;orthogonalLoop=1;jettySize=auto;html=1;exitX=0.5;exitY=0;exitDx=0;exitDy=0;entryX=0.5;entryY=1;entryDx=0;entryDy=0;" edge="1" parent="1" source="rF5V9aYuZ9NK1MrLlrQH-13" target="rF5V9aYuZ9NK1MrLlrQH-9">
          <mxGeometry relative="1" as="geometry" />
        </mxCell>
        <mxCell id="rF5V9aYuZ9NK1MrLlrQH-13" value="Students" style="rounded=1;arcSize=10;whiteSpace=wrap;html=1;align=center;" vertex="1" parent="1">
          <mxGeometry x="-240" y="250" width="100" height="40" as="geometry" />
        </mxCell>
        <mxCell id="rF5V9aYuZ9NK1MrLlrQH-23" style="edgeStyle=orthogonalEdgeStyle;rounded=0;orthogonalLoop=1;jettySize=auto;html=1;exitX=0.5;exitY=0;exitDx=0;exitDy=0;" edge="1" parent="1" source="rF5V9aYuZ9NK1MrLlrQH-15">
          <mxGeometry relative="1" as="geometry">
            <mxPoint x="-640" y="190" as="targetPoint" />
          </mxGeometry>
        </mxCell>
        <mxCell id="rF5V9aYuZ9NK1MrLlrQH-15" value="Teacher" style="rounded=1;arcSize=10;whiteSpace=wrap;html=1;align=center;" vertex="1" parent="1">
          <mxGeometry x="70" y="250" width="100" height="40" as="geometry" />
        </mxCell>
        <mxCell id="rF5V9aYuZ9NK1MrLlrQH-20" style="edgeStyle=orthogonalEdgeStyle;rounded=0;orthogonalLoop=1;jettySize=auto;html=1;exitX=0.5;exitY=0;exitDx=0;exitDy=0;entryX=0.5;entryY=1;entryDx=0;entryDy=0;" edge="1" parent="1" source="rF5V9aYuZ9NK1MrLlrQH-16" target="rF5V9aYuZ9NK1MrLlrQH-9">
          <mxGeometry relative="1" as="geometry" />
        </mxCell>
        <mxCell id="rF5V9aYuZ9NK1MrLlrQH-16" value="Engineering&amp;nbsp;" style="rounded=1;arcSize=10;whiteSpace=wrap;html=1;align=center;" vertex="1" parent="1">
          <mxGeometry x="-860" y="250" width="100" height="40" as="geometry" />
        </mxCell>
        <mxCell id="rF5V9aYuZ9NK1MrLlrQH-24" value="1" style="text;html=1;align=center;verticalAlign=middle;resizable=0;points=[];autosize=1;strokeColor=none;fillColor=none;" vertex="1" parent="1">
          <mxGeometry x="-1380" y="220" width="30" height="30" as="geometry" />
        </mxCell>
        <mxCell id="rF5V9aYuZ9NK1MrLlrQH-25" value="1" style="text;html=1;align=center;verticalAlign=middle;resizable=0;points=[];autosize=1;strokeColor=none;fillColor=none;" vertex="1" parent="1">
          <mxGeometry x="-558" y="220" width="30" height="30" as="geometry" />
        </mxCell>
        <mxCell id="rF5V9aYuZ9NK1MrLlrQH-26" value="1" style="text;html=1;align=center;verticalAlign=middle;resizable=0;points=[];autosize=1;strokeColor=none;fillColor=none;" vertex="1" parent="1">
          <mxGeometry x="90" y="220" width="30" height="30" as="geometry" />
        </mxCell>
        <mxCell id="rF5V9aYuZ9NK1MrLlrQH-27" value="1" style="text;html=1;align=center;verticalAlign=middle;resizable=0;points=[];autosize=1;strokeColor=none;fillColor=none;" vertex="1" parent="1">
          <mxGeometry x="-810" y="220" width="30" height="30" as="geometry" />
        </mxCell>
        <mxCell id="rF5V9aYuZ9NK1MrLlrQH-28" value="1" style="text;html=1;align=center;verticalAlign=middle;resizable=0;points=[];autosize=1;strokeColor=none;fillColor=none;" vertex="1" parent="1">
          <mxGeometry x="-1080" y="220" width="30" height="30" as="geometry" />
        </mxCell>
        <mxCell id="rF5V9aYuZ9NK1MrLlrQH-29" value="1" style="text;html=1;align=center;verticalAlign=middle;resizable=0;points=[];autosize=1;strokeColor=none;fillColor=none;" vertex="1" parent="1">
          <mxGeometry x="-220" y="220" width="30" height="30" as="geometry" />
        </mxCell>
        <mxCell id="rF5V9aYuZ9NK1MrLlrQH-30" value="1" style="text;html=1;align=center;verticalAlign=middle;resizable=0;points=[];autosize=1;strokeColor=none;fillColor=none;" vertex="1" parent="1">
          <mxGeometry x="-670" y="190" width="30" height="30" as="geometry" />
        </mxCell>
        <mxCell id="YSDsoSCHC7CGEY7AMJTM-1" value="id Account&amp;nbsp;" style="ellipse;whiteSpace=wrap;html=1;align=center;fontStyle=4;" vertex="1" parent="1">
          <mxGeometry x="-590" y="100" width="70" height="30" as="geometry" />
        </mxCell>
        <mxCell id="YSDsoSCHC7CGEY7AMJTM-2" value="Account Name" style="ellipse;whiteSpace=wrap;html=1;align=center;" vertex="1" parent="1">
          <mxGeometry x="-820" y="155" width="80" height="30" as="geometry" />
        </mxCell>
        <mxCell id="YSDsoSCHC7CGEY7AMJTM-3" value="Email" style="ellipse;whiteSpace=wrap;html=1;align=center;" vertex="1" parent="1">
          <mxGeometry x="-760" y="100" width="70" height="30" as="geometry" />
        </mxCell>
        <mxCell id="YSDsoSCHC7CGEY7AMJTM-4" value="Password" style="ellipse;whiteSpace=wrap;html=1;align=center;" vertex="1" parent="1">
          <mxGeometry x="-570" y="150" width="70" height="30" as="geometry" />
        </mxCell>
        <mxCell id="YSDsoSCHC7CGEY7AMJTM-7" value="" style="endArrow=none;html=1;rounded=0;entryX=1;entryY=0.5;entryDx=0;entryDy=0;exitX=0;exitY=0.5;exitDx=0;exitDy=0;" edge="1" parent="1" source="rF5V9aYuZ9NK1MrLlrQH-9" target="YSDsoSCHC7CGEY7AMJTM-2">
          <mxGeometry relative="1" as="geometry">
            <mxPoint x="-650" y="210" as="sourcePoint" />
            <mxPoint x="-490" y="210" as="targetPoint" />
          </mxGeometry>
        </mxCell>
        <mxCell id="YSDsoSCHC7CGEY7AMJTM-9" value="" style="endArrow=none;html=1;rounded=0;entryX=1;entryY=1;entryDx=0;entryDy=0;" edge="1" parent="1" target="YSDsoSCHC7CGEY7AMJTM-3">
          <mxGeometry relative="1" as="geometry">
            <mxPoint x="-680" y="150" as="sourcePoint" />
            <mxPoint x="-700" y="129.26" as="targetPoint" />
          </mxGeometry>
        </mxCell>
        <mxCell id="YSDsoSCHC7CGEY7AMJTM-12" value="" style="endArrow=none;html=1;rounded=0;entryX=0.888;entryY=-0.003;entryDx=0;entryDy=0;entryPerimeter=0;" edge="1" parent="1" source="YSDsoSCHC7CGEY7AMJTM-1" target="rF5V9aYuZ9NK1MrLlrQH-9">
          <mxGeometry relative="1" as="geometry">
            <mxPoint x="-569" y="175" as="sourcePoint" />
            <mxPoint x="-590" y="150" as="targetPoint" />
            <Array as="points" />
          </mxGeometry>
        </mxCell>
        <mxCell id="YSDsoSCHC7CGEY7AMJTM-13" value="" style="endArrow=none;html=1;rounded=0;entryX=0.888;entryY=-0.003;entryDx=0;entryDy=0;exitX=0.008;exitY=0.616;exitDx=0;exitDy=0;entryPerimeter=0;exitPerimeter=0;" edge="1" parent="1" source="YSDsoSCHC7CGEY7AMJTM-4">
          <mxGeometry relative="1" as="geometry">
            <mxPoint x="-566" y="150" as="sourcePoint" />
            <mxPoint x="-590" y="170" as="targetPoint" />
            <Array as="points" />
          </mxGeometry>
        </mxCell>
        <mxCell id="YSDsoSCHC7CGEY7AMJTM-15" value="Account Type" style="ellipse;whiteSpace=wrap;html=1;align=center;" vertex="1" parent="1">
          <mxGeometry x="-680" y="70" width="90" height="30" as="geometry" />
        </mxCell>
        <mxCell id="YSDsoSCHC7CGEY7AMJTM-16" value="" style="endArrow=none;html=1;rounded=0;exitX=0.48;exitY=1;exitDx=0;exitDy=0;entryX=0.532;entryY=0.007;entryDx=0;entryDy=0;entryPerimeter=0;exitPerimeter=0;" edge="1" parent="1" source="YSDsoSCHC7CGEY7AMJTM-15" target="rF5V9aYuZ9NK1MrLlrQH-9">
          <mxGeometry relative="1" as="geometry">
            <mxPoint x="-720" y="120" as="sourcePoint" />
            <mxPoint x="-560" y="120" as="targetPoint" />
          </mxGeometry>
        </mxCell>
        <mxCell id="YSDsoSCHC7CGEY7AMJTM-17" value="Team" style="rounded=1;arcSize=10;whiteSpace=wrap;html=1;align=center;" vertex="1" parent="1">
          <mxGeometry x="-240" y="470" width="100" height="40" as="geometry" />
        </mxCell>
        <mxCell id="YSDsoSCHC7CGEY7AMJTM-27" value="" style="endArrow=none;html=1;rounded=0;exitX=0.5;exitY=0;exitDx=0;exitDy=0;" edge="1" parent="1" source="YSDsoSCHC7CGEY7AMJTM-17">
          <mxGeometry relative="1" as="geometry">
            <mxPoint x="-310" y="360" as="sourcePoint" />
            <mxPoint x="-190" y="400" as="targetPoint" />
          </mxGeometry>
        </mxCell>
        <mxCell id="YSDsoSCHC7CGEY7AMJTM-28" value="M" style="text;html=1;align=center;verticalAlign=middle;resizable=0;points=[];autosize=1;strokeColor=none;fillColor=none;" vertex="1" parent="1">
          <mxGeometry x="-190" y="288" width="30" height="30" as="geometry" />
        </mxCell>
        <mxCell id="YSDsoSCHC7CGEY7AMJTM-29" value="1" style="text;html=1;align=center;verticalAlign=middle;resizable=0;points=[];autosize=1;strokeColor=none;fillColor=none;" vertex="1" parent="1">
          <mxGeometry x="-190" y="440" width="30" height="30" as="geometry" />
        </mxCell>
        <mxCell id="YSDsoSCHC7CGEY7AMJTM-31" value="have" style="shape=rhombus;perimeter=rhombusPerimeter;whiteSpace=wrap;html=1;align=center;" vertex="1" parent="1">
          <mxGeometry x="-250" y="340" width="120" height="60" as="geometry" />
        </mxCell>
        <mxCell id="YSDsoSCHC7CGEY7AMJTM-33" value="" style="endArrow=none;html=1;rounded=0;exitX=0.5;exitY=0;exitDx=0;exitDy=0;" edge="1" parent="1" source="YSDsoSCHC7CGEY7AMJTM-31">
          <mxGeometry relative="1" as="geometry">
            <mxPoint x="-190" y="330" as="sourcePoint" />
            <mxPoint x="-190" y="290" as="targetPoint" />
          </mxGeometry>
        </mxCell>
        <mxCell id="YSDsoSCHC7CGEY7AMJTM-36" value="Deadline&amp;nbsp;" style="ellipse;whiteSpace=wrap;html=1;align=center;" vertex="1" parent="1">
          <mxGeometry x="-110" y="255" width="70" height="30" as="geometry" />
        </mxCell>
        <mxCell id="YSDsoSCHC7CGEY7AMJTM-37" value="" style="endArrow=none;html=1;rounded=0;entryX=1;entryY=0.5;entryDx=0;entryDy=0;exitX=0;exitY=0.5;exitDx=0;exitDy=0;" edge="1" parent="1" source="YSDsoSCHC7CGEY7AMJTM-36" target="rF5V9aYuZ9NK1MrLlrQH-13">
          <mxGeometry relative="1" as="geometry">
            <mxPoint x="-360" y="180" as="sourcePoint" />
            <mxPoint x="-380" y="185" as="targetPoint" />
            <Array as="points" />
          </mxGeometry>
        </mxCell>
        <mxCell id="YSDsoSCHC7CGEY7AMJTM-39" value="Team Number" style="ellipse;whiteSpace=wrap;html=1;align=center;fontStyle=4;" vertex="1" parent="1">
          <mxGeometry x="-60" y="506" width="100" height="40" as="geometry" />
        </mxCell>
        <mxCell id="YSDsoSCHC7CGEY7AMJTM-43" value="" style="endArrow=none;html=1;rounded=0;entryX=0;entryY=0.5;entryDx=0;entryDy=0;exitX=1;exitY=0.75;exitDx=0;exitDy=0;" edge="1" parent="1" source="YSDsoSCHC7CGEY7AMJTM-17" target="YSDsoSCHC7CGEY7AMJTM-39">
          <mxGeometry relative="1" as="geometry">
            <mxPoint x="-210" y="500" as="sourcePoint" />
            <mxPoint x="-230" y="500" as="targetPoint" />
            <Array as="points" />
          </mxGeometry>
        </mxCell>
        <mxCell id="YSDsoSCHC7CGEY7AMJTM-44" value="Phase" style="whiteSpace=wrap;html=1;align=center;" vertex="1" parent="1">
          <mxGeometry x="-1430" y="470" width="100" height="40" as="geometry" />
        </mxCell>
        <mxCell id="YSDsoSCHC7CGEY7AMJTM-45" value="mange" style="shape=rhombus;perimeter=rhombusPerimeter;whiteSpace=wrap;html=1;align=center;" vertex="1" parent="1">
          <mxGeometry x="-1440" y="350" width="120" height="60" as="geometry" />
        </mxCell>
        <mxCell id="YSDsoSCHC7CGEY7AMJTM-46" value="" style="endArrow=none;html=1;rounded=0;exitX=0.5;exitY=0;exitDx=0;exitDy=0;" edge="1" parent="1" source="YSDsoSCHC7CGEY7AMJTM-45">
          <mxGeometry relative="1" as="geometry">
            <mxPoint x="-1381.33" y="338" as="sourcePoint" />
            <mxPoint x="-1380" y="290" as="targetPoint" />
          </mxGeometry>
        </mxCell>
        <mxCell id="YSDsoSCHC7CGEY7AMJTM-47" value="" style="endArrow=none;html=1;rounded=0;exitX=0.5;exitY=0;exitDx=0;exitDy=0;entryX=0.5;entryY=1;entryDx=0;entryDy=0;" edge="1" parent="1" target="YSDsoSCHC7CGEY7AMJTM-45">
          <mxGeometry relative="1" as="geometry">
            <mxPoint x="-1380" y="470" as="sourcePoint" />
            <mxPoint x="-1380" y="420" as="targetPoint" />
          </mxGeometry>
        </mxCell>
        <mxCell id="YSDsoSCHC7CGEY7AMJTM-48" value="1" style="text;html=1;align=center;verticalAlign=middle;resizable=0;points=[];autosize=1;strokeColor=none;fillColor=none;" vertex="1" parent="1">
          <mxGeometry x="-1380" y="290" width="30" height="30" as="geometry" />
        </mxCell>
        <mxCell id="YSDsoSCHC7CGEY7AMJTM-49" value="M" style="text;html=1;align=center;verticalAlign=middle;resizable=0;points=[];autosize=1;strokeColor=none;fillColor=none;" vertex="1" parent="1">
          <mxGeometry x="-1384" y="445" width="30" height="30" as="geometry" />
        </mxCell>
        <mxCell id="YSDsoSCHC7CGEY7AMJTM-51" value="" style="endArrow=none;html=1;rounded=0;exitX=1;exitY=0.5;exitDx=0;exitDy=0;entryX=0;entryY=0.5;entryDx=0;entryDy=0;" edge="1" parent="1" source="YSDsoSCHC7CGEY7AMJTM-44" target="YSDsoSCHC7CGEY7AMJTM-50">
          <mxGeometry relative="1" as="geometry">
            <mxPoint x="-1310" y="520" as="sourcePoint" />
            <mxPoint x="-1310" y="460" as="targetPoint" />
          </mxGeometry>
        </mxCell>
        <mxCell id="YSDsoSCHC7CGEY7AMJTM-52" value="" style="endArrow=none;html=1;rounded=0;exitX=1;exitY=0.5;exitDx=0;exitDy=0;entryX=0;entryY=0.5;entryDx=0;entryDy=0;" edge="1" parent="1" source="YSDsoSCHC7CGEY7AMJTM-50" target="YSDsoSCHC7CGEY7AMJTM-17">
          <mxGeometry relative="1" as="geometry">
            <mxPoint x="-810" y="489.1700000000001" as="sourcePoint" />
            <mxPoint x="-410" y="489.1700000000001" as="targetPoint" />
          </mxGeometry>
        </mxCell>
        <mxCell id="YSDsoSCHC7CGEY7AMJTM-53" value="" style="endArrow=none;html=1;rounded=0;exitX=1;exitY=0.5;exitDx=0;exitDy=0;entryX=0;entryY=0.5;entryDx=0;entryDy=0;" edge="1" parent="1" target="YSDsoSCHC7CGEY7AMJTM-50">
          <mxGeometry relative="1" as="geometry">
            <mxPoint x="-810" y="489.1700000000001" as="sourcePoint" />
            <mxPoint x="-240" y="490" as="targetPoint" />
          </mxGeometry>
        </mxCell>
        <mxCell id="YSDsoSCHC7CGEY7AMJTM-50" value="have" style="shape=rhombus;perimeter=rhombusPerimeter;whiteSpace=wrap;html=1;align=center;" vertex="1" parent="1">
          <mxGeometry x="-810" y="460" width="120" height="60" as="geometry" />
        </mxCell>
        <mxCell id="YSDsoSCHC7CGEY7AMJTM-54" value="1" style="text;html=1;align=center;verticalAlign=middle;resizable=0;points=[];autosize=1;strokeColor=none;fillColor=none;" vertex="1" parent="1">
          <mxGeometry x="-1336" y="485" width="30" height="30" as="geometry" />
        </mxCell>
        <mxCell id="YSDsoSCHC7CGEY7AMJTM-55" value="M" style="text;html=1;align=center;verticalAlign=middle;resizable=0;points=[];autosize=1;strokeColor=none;fillColor=none;" vertex="1" parent="1">
          <mxGeometry x="-365" y="448" width="30" height="30" as="geometry" />
        </mxCell>
        <mxCell id="YSDsoSCHC7CGEY7AMJTM-56" value="Lead" style="shape=rhombus;perimeter=rhombusPerimeter;whiteSpace=wrap;html=1;align=center;" vertex="1" parent="1">
          <mxGeometry x="-80" y="360" width="120" height="60" as="geometry" />
        </mxCell>
        <mxCell id="YSDsoSCHC7CGEY7AMJTM-57" value="" style="endArrow=none;html=1;rounded=0;exitX=1;exitY=0.5;exitDx=0;exitDy=0;" edge="1" parent="1" source="YSDsoSCHC7CGEY7AMJTM-17">
          <mxGeometry relative="1" as="geometry">
            <mxPoint x="-95" y="500" as="sourcePoint" />
            <mxPoint x="-20" y="490" as="targetPoint" />
            <Array as="points" />
          </mxGeometry>
        </mxCell>
        <mxCell id="YSDsoSCHC7CGEY7AMJTM-58" value="" style="endArrow=none;html=1;rounded=0;exitX=0.5;exitY=0;exitDx=0;exitDy=0;" edge="1" parent="1" source="YSDsoSCHC7CGEY7AMJTM-56">
          <mxGeometry relative="1" as="geometry">
            <mxPoint x="110" y="430" as="sourcePoint" />
            <mxPoint x="-20" y="270" as="targetPoint" />
            <Array as="points" />
          </mxGeometry>
        </mxCell>
        <mxCell id="YSDsoSCHC7CGEY7AMJTM-62" value="Team Name" style="ellipse;whiteSpace=wrap;html=1;align=center;" vertex="1" parent="1">
          <mxGeometry x="-100" y="550" width="100" height="40" as="geometry" />
        </mxCell>
        <mxCell id="YSDsoSCHC7CGEY7AMJTM-63" value="" style="endArrow=none;html=1;rounded=0;entryX=0;entryY=0;entryDx=0;entryDy=0;exitX=1;exitY=1;exitDx=0;exitDy=0;" edge="1" parent="1" source="YSDsoSCHC7CGEY7AMJTM-17" target="YSDsoSCHC7CGEY7AMJTM-62">
          <mxGeometry relative="1" as="geometry">
            <mxPoint x="-180" y="520" as="sourcePoint" />
            <mxPoint x="-180" y="540" as="targetPoint" />
            <Array as="points" />
          </mxGeometry>
        </mxCell>
        <mxCell id="YSDsoSCHC7CGEY7AMJTM-64" value="1" style="text;html=1;align=center;verticalAlign=middle;resizable=0;points=[];autosize=1;strokeColor=none;fillColor=none;" vertex="1" parent="1">
          <mxGeometry x="40" y="270" width="30" height="30" as="geometry" />
        </mxCell>
        <mxCell id="YSDsoSCHC7CGEY7AMJTM-65" value="M" style="text;html=1;align=center;verticalAlign=middle;resizable=0;points=[];autosize=1;strokeColor=none;fillColor=none;" vertex="1" parent="1">
          <mxGeometry x="-140" y="460" width="30" height="30" as="geometry" />
        </mxCell>
        <mxCell id="YSDsoSCHC7CGEY7AMJTM-66" value="Lead" style="shape=rhombus;perimeter=rhombusPerimeter;whiteSpace=wrap;html=1;align=center;" vertex="1" parent="1">
          <mxGeometry x="-810" y="382" width="120" height="60" as="geometry" />
        </mxCell>
        <mxCell id="YSDsoSCHC7CGEY7AMJTM-67" value="" style="endArrow=none;html=1;rounded=0;entryX=1;entryY=0.5;entryDx=0;entryDy=0;" edge="1" parent="1" target="YSDsoSCHC7CGEY7AMJTM-66">
          <mxGeometry relative="1" as="geometry">
            <mxPoint x="-230" y="410" as="sourcePoint" />
            <mxPoint x="-700" y="428.95" as="targetPoint" />
            <Array as="points" />
          </mxGeometry>
        </mxCell>
        <mxCell id="YSDsoSCHC7CGEY7AMJTM-69" value="M" style="text;html=1;align=center;verticalAlign=middle;resizable=0;points=[];autosize=1;strokeColor=none;fillColor=none;" vertex="1" parent="1">
          <mxGeometry x="-252" y="440" width="30" height="30" as="geometry" />
        </mxCell>
        <mxCell id="YSDsoSCHC7CGEY7AMJTM-73" value="" style="endArrow=none;html=1;rounded=0;exitX=0;exitY=0.5;exitDx=0;exitDy=0;" edge="1" parent="1" source="YSDsoSCHC7CGEY7AMJTM-66">
          <mxGeometry relative="1" as="geometry">
            <mxPoint x="-810" y="350" as="sourcePoint" />
            <mxPoint x="-810" y="290" as="targetPoint" />
          </mxGeometry>
        </mxCell>
        <mxCell id="YSDsoSCHC7CGEY7AMJTM-74" value="" style="endArrow=none;html=1;rounded=0;exitX=0.5;exitY=0;exitDx=0;exitDy=0;" edge="1" parent="1">
          <mxGeometry relative="1" as="geometry">
            <mxPoint x="-228" y="472" as="sourcePoint" />
            <mxPoint x="-229" y="410" as="targetPoint" />
          </mxGeometry>
        </mxCell>
        <mxCell id="YSDsoSCHC7CGEY7AMJTM-75" value="1" style="text;html=1;align=center;verticalAlign=middle;resizable=0;points=[];autosize=1;strokeColor=none;fillColor=none;" vertex="1" parent="1">
          <mxGeometry x="-810" y="288" width="30" height="30" as="geometry" />
        </mxCell>
        <mxCell id="YSDsoSCHC7CGEY7AMJTM-77" value="Team Leader" style="whiteSpace=wrap;html=1;align=center;" vertex="1" parent="1">
          <mxGeometry x="-240" y="690" width="100" height="40" as="geometry" />
        </mxCell>
        <mxCell id="YSDsoSCHC7CGEY7AMJTM-78" value="Mange" style="shape=rhombus;perimeter=rhombusPerimeter;whiteSpace=wrap;html=1;align=center;" vertex="1" parent="1">
          <mxGeometry x="-250" y="580" width="120" height="60" as="geometry" />
        </mxCell>
        <mxCell id="YSDsoSCHC7CGEY7AMJTM-79" value="" style="endArrow=none;html=1;rounded=0;entryX=0.5;entryY=0;entryDx=0;entryDy=0;exitX=0.5;exitY=1;exitDx=0;exitDy=0;" edge="1" parent="1" source="YSDsoSCHC7CGEY7AMJTM-17" target="YSDsoSCHC7CGEY7AMJTM-78">
          <mxGeometry relative="1" as="geometry">
            <mxPoint x="-200" y="510" as="sourcePoint" />
            <mxPoint x="-120" y="530" as="targetPoint" />
            <Array as="points" />
          </mxGeometry>
        </mxCell>
        <mxCell id="YSDsoSCHC7CGEY7AMJTM-80" value="" style="endArrow=none;html=1;rounded=0;entryX=0.5;entryY=0;entryDx=0;entryDy=0;exitX=0.5;exitY=1;exitDx=0;exitDy=0;" edge="1" parent="1" target="YSDsoSCHC7CGEY7AMJTM-77">
          <mxGeometry relative="1" as="geometry">
            <mxPoint x="-190" y="640" as="sourcePoint" />
            <mxPoint x="-190" y="710" as="targetPoint" />
            <Array as="points" />
          </mxGeometry>
        </mxCell>
        <mxCell id="YSDsoSCHC7CGEY7AMJTM-81" value="1" style="text;html=1;align=center;verticalAlign=middle;resizable=0;points=[];autosize=1;strokeColor=none;fillColor=none;" vertex="1" parent="1">
          <mxGeometry x="-220" y="510" width="30" height="30" as="geometry" />
        </mxCell>
        <mxCell id="YSDsoSCHC7CGEY7AMJTM-82" value="1" style="text;html=1;align=center;verticalAlign=middle;resizable=0;points=[];autosize=1;strokeColor=none;fillColor=none;" vertex="1" parent="1">
          <mxGeometry x="-220" y="660" width="30" height="30" as="geometry" />
        </mxCell>
        <mxCell id="YSDsoSCHC7CGEY7AMJTM-85" value="" style="endArrow=none;html=1;rounded=0;" edge="1" parent="1" source="YSDsoSCHC7CGEY7AMJTM-83">
          <mxGeometry relative="1" as="geometry">
            <mxPoint x="-950" y="420" as="sourcePoint" />
            <mxPoint x="-950" y="650" as="targetPoint" />
            <Array as="points" />
          </mxGeometry>
        </mxCell>
        <mxCell id="YSDsoSCHC7CGEY7AMJTM-86" value="" style="endArrow=none;html=1;rounded=0;entryX=0;entryY=0.5;entryDx=0;entryDy=0;exitX=1;exitY=1;exitDx=0;exitDy=0;" edge="1" parent="1" target="rF5V9aYuZ9NK1MrLlrQH-16">
          <mxGeometry relative="1" as="geometry">
            <mxPoint x="-950" y="270" as="sourcePoint" />
            <mxPoint x="-895" y="316" as="targetPoint" />
            <Array as="points" />
          </mxGeometry>
        </mxCell>
        <mxCell id="YSDsoSCHC7CGEY7AMJTM-87" value="Mange" style="shape=rhombus;perimeter=rhombusPerimeter;whiteSpace=wrap;html=1;align=center;" vertex="1" parent="1">
          <mxGeometry x="-1010" y="360" width="120" height="60" as="geometry" />
        </mxCell>
        <mxCell id="YSDsoSCHC7CGEY7AMJTM-88" value="" style="endArrow=none;html=1;rounded=0;entryX=0.5;entryY=0;entryDx=0;entryDy=0;" edge="1" parent="1" target="YSDsoSCHC7CGEY7AMJTM-87">
          <mxGeometry relative="1" as="geometry">
            <mxPoint x="-950" y="270" as="sourcePoint" />
            <mxPoint x="-885" y="366" as="targetPoint" />
            <Array as="points" />
          </mxGeometry>
        </mxCell>
        <mxCell id="YSDsoSCHC7CGEY7AMJTM-89" value="1" style="text;html=1;align=center;verticalAlign=middle;resizable=0;points=[];autosize=1;strokeColor=none;fillColor=none;" vertex="1" parent="1">
          <mxGeometry x="-885" y="266" width="30" height="30" as="geometry" />
        </mxCell>
        <mxCell id="YSDsoSCHC7CGEY7AMJTM-90" value="1" style="text;html=1;align=center;verticalAlign=middle;resizable=0;points=[];autosize=1;strokeColor=none;fillColor=none;" vertex="1" parent="1">
          <mxGeometry x="-950" y="620" width="30" height="30" as="geometry" />
        </mxCell>
        <mxCell id="YSDsoSCHC7CGEY7AMJTM-91" value="" style="endArrow=none;html=1;rounded=0;entryX=0;entryY=0.5;entryDx=0;entryDy=0;" edge="1" parent="1" target="rF5V9aYuZ9NK1MrLlrQH-15">
          <mxGeometry relative="1" as="geometry">
            <mxPoint x="-20" y="270" as="sourcePoint" />
            <mxPoint x="-10" y="300" as="targetPoint" />
            <Array as="points" />
          </mxGeometry>
        </mxCell>
        <mxCell id="YSDsoSCHC7CGEY7AMJTM-92" value="" style="endArrow=none;html=1;rounded=0;" edge="1" parent="1">
          <mxGeometry relative="1" as="geometry">
            <mxPoint x="-20" y="490" as="sourcePoint" />
            <mxPoint x="-20.289999999999964" y="420" as="targetPoint" />
            <Array as="points" />
          </mxGeometry>
        </mxCell>
        <mxCell id="YSDsoSCHC7CGEY7AMJTM-93" value="" style="endArrow=none;html=1;rounded=0;" edge="1" parent="1">
          <mxGeometry relative="1" as="geometry">
            <mxPoint x="130" y="290" as="sourcePoint" />
            <mxPoint x="130" y="770" as="targetPoint" />
            <Array as="points" />
          </mxGeometry>
        </mxCell>
        <mxCell id="YSDsoSCHC7CGEY7AMJTM-94" value="" style="endArrow=none;html=1;rounded=0;" edge="1" parent="1">
          <mxGeometry relative="1" as="geometry">
            <mxPoint x="-950" y="769.75" as="sourcePoint" />
            <mxPoint x="-30" y="769.75" as="targetPoint" />
            <Array as="points" />
          </mxGeometry>
        </mxCell>
        <mxCell id="YSDsoSCHC7CGEY7AMJTM-95" value="mange" style="shape=rhombus;perimeter=rhombusPerimeter;whiteSpace=wrap;html=1;align=center;" vertex="1" parent="1">
          <mxGeometry x="-30" y="740" width="120" height="60" as="geometry" />
        </mxCell>
        <mxCell id="YSDsoSCHC7CGEY7AMJTM-96" value="" style="endArrow=none;html=1;rounded=0;exitX=1;exitY=1;exitDx=0;exitDy=0;" edge="1" parent="1">
          <mxGeometry relative="1" as="geometry">
            <mxPoint x="90" y="770" as="sourcePoint" />
            <mxPoint x="130" y="770" as="targetPoint" />
            <Array as="points" />
          </mxGeometry>
        </mxCell>
        <mxCell id="YSDsoSCHC7CGEY7AMJTM-97" value="" style="endArrow=none;html=1;rounded=0;exitX=0.5;exitY=1;exitDx=0;exitDy=0;" edge="1" parent="1" source="YSDsoSCHC7CGEY7AMJTM-83">
          <mxGeometry relative="1" as="geometry">
            <mxPoint x="-740" y="580" as="sourcePoint" />
            <mxPoint x="-950" y="770" as="targetPoint" />
            <Array as="points" />
          </mxGeometry>
        </mxCell>
        <mxCell id="YSDsoSCHC7CGEY7AMJTM-99" value="1" style="text;html=1;align=center;verticalAlign=middle;resizable=0;points=[];autosize=1;strokeColor=none;fillColor=none;" vertex="1" parent="1">
          <mxGeometry x="105" y="290" width="30" height="30" as="geometry" />
        </mxCell>
        <mxCell id="YSDsoSCHC7CGEY7AMJTM-100" value="1" style="text;html=1;align=center;verticalAlign=middle;resizable=0;points=[];autosize=1;strokeColor=none;fillColor=none;" vertex="1" parent="1">
          <mxGeometry x="-950" y="690" width="30" height="30" as="geometry" />
        </mxCell>
        <mxCell id="YSDsoSCHC7CGEY7AMJTM-101" value="&lt;span style=&quot;text-wrap-mode: nowrap;&quot;&gt;have&lt;/span&gt;" style="shape=rhombus;perimeter=rhombusPerimeter;whiteSpace=wrap;html=1;align=center;" vertex="1" parent="1">
          <mxGeometry x="-590" y="640" width="120" height="60" as="geometry" />
        </mxCell>
        <mxCell id="YSDsoSCHC7CGEY7AMJTM-102" value="" style="endArrow=none;html=1;rounded=0;entryX=0;entryY=0.5;entryDx=0;entryDy=0;exitX=1;exitY=1;exitDx=0;exitDy=0;" edge="1" parent="1" target="YSDsoSCHC7CGEY7AMJTM-101">
          <mxGeometry relative="1" as="geometry">
            <mxPoint x="-900" y="670" as="sourcePoint" />
            <mxPoint x="-845" y="716" as="targetPoint" />
            <Array as="points" />
          </mxGeometry>
        </mxCell>
        <mxCell id="YSDsoSCHC7CGEY7AMJTM-103" value="" style="endArrow=none;html=1;rounded=0;exitX=1;exitY=1;exitDx=0;exitDy=0;" edge="1" parent="1">
          <mxGeometry relative="1" as="geometry">
            <mxPoint x="-470" y="669.38" as="sourcePoint" />
            <mxPoint x="-270" y="669" as="targetPoint" />
            <Array as="points" />
          </mxGeometry>
        </mxCell>
        <mxCell id="YSDsoSCHC7CGEY7AMJTM-104" value="" style="endArrow=none;html=1;rounded=0;" edge="1" parent="1">
          <mxGeometry relative="1" as="geometry">
            <mxPoint x="-270" y="670" as="sourcePoint" />
            <mxPoint x="-270" y="273" as="targetPoint" />
            <Array as="points" />
          </mxGeometry>
        </mxCell>
        <mxCell id="YSDsoSCHC7CGEY7AMJTM-105" value="" style="endArrow=none;html=1;rounded=0;entryX=0;entryY=0.5;entryDx=0;entryDy=0;" edge="1" parent="1">
          <mxGeometry relative="1" as="geometry">
            <mxPoint x="-270" y="273" as="sourcePoint" />
            <mxPoint x="-240" y="273" as="targetPoint" />
            <Array as="points" />
          </mxGeometry>
        </mxCell>
        <mxCell id="YSDsoSCHC7CGEY7AMJTM-107" value="M" style="text;html=1;align=center;verticalAlign=middle;resizable=0;points=[];autosize=1;strokeColor=none;fillColor=none;" vertex="1" parent="1">
          <mxGeometry x="-263" y="270" width="30" height="30" as="geometry" />
        </mxCell>
        <mxCell id="YSDsoSCHC7CGEY7AMJTM-109" value="1" style="text;html=1;align=center;verticalAlign=middle;resizable=0;points=[];autosize=1;strokeColor=none;fillColor=none;" vertex="1" parent="1">
          <mxGeometry x="-900" y="640" width="30" height="30" as="geometry" />
        </mxCell>
        <mxCell id="YSDsoSCHC7CGEY7AMJTM-110" value="&lt;code data-end=&quot;386&quot; data-start=&quot;379&quot;&gt;Grade&lt;/code&gt;" style="whiteSpace=wrap;html=1;align=center;" vertex="1" parent="1">
          <mxGeometry x="-1350" y="700" width="100" height="40" as="geometry" />
        </mxCell>
        <mxCell id="YSDsoSCHC7CGEY7AMJTM-113" value="1" style="text;html=1;align=center;verticalAlign=middle;resizable=0;points=[];autosize=1;strokeColor=none;fillColor=none;" vertex="1" parent="1">
          <mxGeometry x="-1375" y="690" width="30" height="30" as="geometry" />
        </mxCell>
        <mxCell id="YSDsoSCHC7CGEY7AMJTM-114" value="M" style="text;html=1;align=center;verticalAlign=middle;resizable=0;points=[];autosize=1;strokeColor=none;fillColor=none;" vertex="1" parent="1">
          <mxGeometry x="-1400" y="508" width="30" height="30" as="geometry" />
        </mxCell>
        <mxCell id="YSDsoSCHC7CGEY7AMJTM-117" value="1" style="text;html=1;align=center;verticalAlign=middle;resizable=0;points=[];autosize=1;strokeColor=none;fillColor=none;" vertex="1" parent="1">
          <mxGeometry x="-1253" y="714" width="30" height="30" as="geometry" />
        </mxCell>
        <mxCell id="YSDsoSCHC7CGEY7AMJTM-118" value="M" style="text;html=1;align=center;verticalAlign=middle;resizable=0;points=[];autosize=1;strokeColor=none;fillColor=none;" vertex="1" parent="1">
          <mxGeometry x="-1023" y="655" width="30" height="30" as="geometry" />
        </mxCell>
        <mxCell id="YSDsoSCHC7CGEY7AMJTM-124" value="M&lt;span style=&quot;color: rgba(0, 0, 0, 0); font-family: monospace; font-size: 0px; text-align: start;&quot;&gt;%3CmxGraphModel%3E%3Croot%3E%3CmxCell%20id%3D%220%22%2F%3E%3CmxCell%20id%3D%221%22%20parent%3D%220%22%2F%3E%3CmxCell%20id%3D%222%22%20value%3D%221%22%20style%3D%22text%3Bhtml%3D1%3Balign%3Dcenter%3BverticalAlign%3Dmiddle%3Bresizable%3D0%3Bpoints%3D%5B%5D%3Bautosize%3D1%3BstrokeColor%3Dnone%3BfillColor%3Dnone%3B%22%20vertex%3D%221%22%20parent%3D%221%22%3E%3CmxGeometry%20x%3D%22-620%22%20y%3D%22680%22%20width%3D%2230%22%20height%3D%2230%22%20as%3D%22geometry%22%2F%3E%3C%2FmxCell%3E%3C%2Froot%3E%3C%2FmxGraphModel%3E&lt;/span&gt;" style="text;html=1;align=center;verticalAlign=middle;resizable=0;points=[];autosize=1;strokeColor=none;fillColor=none;" vertex="1" parent="1">
          <mxGeometry x="-545" y="288" width="30" height="30" as="geometry" />
        </mxCell>
        <mxCell id="YSDsoSCHC7CGEY7AMJTM-125" value="M" style="text;html=1;align=center;verticalAlign=middle;resizable=0;points=[];autosize=1;strokeColor=none;fillColor=none;" vertex="1" parent="1">
          <mxGeometry x="-1290" y="675" width="30" height="30" as="geometry" />
        </mxCell>
        <mxCell id="YSDsoSCHC7CGEY7AMJTM-129" value="1" style="text;html=1;align=center;verticalAlign=middle;resizable=0;points=[];autosize=1;strokeColor=none;fillColor=none;" vertex="1" parent="1">
          <mxGeometry x="-1458" y="264" width="30" height="30" as="geometry" />
        </mxCell>
        <mxCell id="YSDsoSCHC7CGEY7AMJTM-130" value="M" style="text;html=1;align=center;verticalAlign=middle;resizable=0;points=[];autosize=1;strokeColor=none;fillColor=none;" vertex="1" parent="1">
          <mxGeometry x="-1375" y="729" width="30" height="30" as="geometry" />
        </mxCell>
        <mxCell id="YSDsoSCHC7CGEY7AMJTM-133" value="Task" style="rounded=1;arcSize=10;whiteSpace=wrap;html=1;align=center;" vertex="1" parent="1">
          <mxGeometry x="-1853" y="448" width="100" height="40" as="geometry" />
        </mxCell>
        <mxCell id="YSDsoSCHC7CGEY7AMJTM-134" value="1" style="text;html=1;align=center;verticalAlign=middle;resizable=0;points=[];autosize=1;strokeColor=none;fillColor=none;" vertex="1" parent="1">
          <mxGeometry x="-1452" y="465" width="30" height="30" as="geometry" />
        </mxCell>
        <mxCell id="YSDsoSCHC7CGEY7AMJTM-135" value="M" style="text;html=1;align=center;verticalAlign=middle;resizable=0;points=[];autosize=1;strokeColor=none;fillColor=none;" vertex="1" parent="1">
          <mxGeometry x="-1755" y="444" width="30" height="30" as="geometry" />
        </mxCell>
        <mxCell id="YSDsoSCHC7CGEY7AMJTM-143" value="have" style="shape=rhombus;perimeter=rhombusPerimeter;whiteSpace=wrap;html=1;align=center;" vertex="1" parent="1">
          <mxGeometry x="-1430" y="580" width="120" height="60" as="geometry" />
        </mxCell>
        <mxCell id="YSDsoSCHC7CGEY7AMJTM-147" value="" style="endArrow=none;html=1;rounded=0;exitX=0.5;exitY=0;exitDx=0;exitDy=0;" edge="1" parent="1" source="YSDsoSCHC7CGEY7AMJTM-143">
          <mxGeometry relative="1" as="geometry">
            <mxPoint x="-1390.4" y="580" as="sourcePoint" />
            <mxPoint x="-1370" y="510" as="targetPoint" />
            <Array as="points">
              <mxPoint x="-1370" y="540" />
            </Array>
          </mxGeometry>
        </mxCell>
        <mxCell id="YSDsoSCHC7CGEY7AMJTM-149" value="" style="endArrow=none;html=1;rounded=0;" edge="1" parent="1">
          <mxGeometry relative="1" as="geometry">
            <mxPoint x="-1370" y="715" as="sourcePoint" />
            <mxPoint x="-1370.3400000000001" y="640" as="targetPoint" />
            <Array as="points">
              <mxPoint x="-1370.3400000000001" y="670" />
            </Array>
          </mxGeometry>
        </mxCell>
        <mxCell id="YSDsoSCHC7CGEY7AMJTM-150" value="" style="endArrow=none;html=1;rounded=0;exitX=0;exitY=0.5;exitDx=0;exitDy=0;" edge="1" parent="1" source="YSDsoSCHC7CGEY7AMJTM-110">
          <mxGeometry relative="1" as="geometry">
            <mxPoint x="-1250" y="710" as="sourcePoint" />
            <mxPoint x="-1370" y="710" as="targetPoint" />
            <Array as="points">
              <mxPoint x="-1370" y="720" />
            </Array>
          </mxGeometry>
        </mxCell>
        <mxCell id="YSDsoSCHC7CGEY7AMJTM-151" value="&lt;span style=&quot;text-wrap-mode: nowrap;&quot;&gt;have&lt;/span&gt;" style="shape=rhombus;perimeter=rhombusPerimeter;whiteSpace=wrap;html=1;align=center;" vertex="1" parent="1">
          <mxGeometry x="-1180" y="660" width="120" height="60" as="geometry" />
        </mxCell>
        <mxCell id="YSDsoSCHC7CGEY7AMJTM-152" value="" style="endArrow=none;html=1;rounded=0;entryX=1;entryY=0.5;entryDx=0;entryDy=0;exitX=0.5;exitY=1;exitDx=0;exitDy=0;" edge="1" parent="1" source="YSDsoSCHC7CGEY7AMJTM-151" target="YSDsoSCHC7CGEY7AMJTM-110">
          <mxGeometry relative="1" as="geometry">
            <mxPoint x="-1234.99" y="800" as="sourcePoint" />
            <mxPoint x="-1235.33" y="725" as="targetPoint" />
            <Array as="points" />
          </mxGeometry>
        </mxCell>
        <mxCell id="YSDsoSCHC7CGEY7AMJTM-154" value="" style="endArrow=none;html=1;rounded=0;entryX=0.5;entryY=0;entryDx=0;entryDy=0;exitX=0;exitY=0.5;exitDx=0;exitDy=0;" edge="1" parent="1" source="YSDsoSCHC7CGEY7AMJTM-83" target="YSDsoSCHC7CGEY7AMJTM-151">
          <mxGeometry relative="1" as="geometry">
            <mxPoint x="-990" y="660" as="sourcePoint" />
            <mxPoint x="-1120" y="660" as="targetPoint" />
            <Array as="points" />
          </mxGeometry>
        </mxCell>
        <mxCell id="YSDsoSCHC7CGEY7AMJTM-155" value="" style="endArrow=none;html=1;rounded=0;" edge="1" parent="1" target="YSDsoSCHC7CGEY7AMJTM-83">
          <mxGeometry relative="1" as="geometry">
            <mxPoint x="-950" y="420" as="sourcePoint" />
            <mxPoint x="-950" y="650" as="targetPoint" />
            <Array as="points" />
          </mxGeometry>
        </mxCell>
        <mxCell id="YSDsoSCHC7CGEY7AMJTM-83" value="Class" style="whiteSpace=wrap;html=1;align=center;" vertex="1" parent="1">
          <mxGeometry x="-1000" y="640" width="100" height="40" as="geometry" />
        </mxCell>
        <mxCell id="YSDsoSCHC7CGEY7AMJTM-156" value="&lt;span style=&quot;text-wrap-mode: nowrap;&quot;&gt;have&lt;/span&gt;" style="shape=rhombus;perimeter=rhombusPerimeter;whiteSpace=wrap;html=1;align=center;" vertex="1" parent="1">
          <mxGeometry x="-1690" y="440" width="120" height="60" as="geometry" />
        </mxCell>
        <mxCell id="YSDsoSCHC7CGEY7AMJTM-159" value="" style="endArrow=none;html=1;rounded=0;exitX=0.5;exitY=0;exitDx=0;exitDy=0;" edge="1" parent="1" source="YSDsoSCHC7CGEY7AMJTM-157">
          <mxGeometry relative="1" as="geometry">
            <mxPoint x="-1540.53" y="483" as="sourcePoint" />
            <mxPoint x="-1540" y="270" as="targetPoint" />
          </mxGeometry>
        </mxCell>
        <mxCell id="YSDsoSCHC7CGEY7AMJTM-160" value="" style="endArrow=none;html=1;rounded=0;exitX=0;exitY=0.5;exitDx=0;exitDy=0;" edge="1" parent="1" source="rF5V9aYuZ9NK1MrLlrQH-10">
          <mxGeometry relative="1" as="geometry">
            <mxPoint x="-1520" y="370" as="sourcePoint" />
            <mxPoint x="-1540" y="270" as="targetPoint" />
          </mxGeometry>
        </mxCell>
        <mxCell id="YSDsoSCHC7CGEY7AMJTM-162" value="" style="endArrow=none;html=1;rounded=0;entryX=0;entryY=0.75;entryDx=0;entryDy=0;" edge="1" parent="1" target="YSDsoSCHC7CGEY7AMJTM-110">
          <mxGeometry relative="1" as="geometry">
            <mxPoint x="-1540" y="730" as="sourcePoint" />
            <mxPoint x="-1400" y="740" as="targetPoint" />
          </mxGeometry>
        </mxCell>
        <mxCell id="YSDsoSCHC7CGEY7AMJTM-163" value="" style="endArrow=none;html=1;rounded=0;" edge="1" parent="1" target="YSDsoSCHC7CGEY7AMJTM-157">
          <mxGeometry relative="1" as="geometry">
            <mxPoint x="-1541" y="730" as="sourcePoint" />
            <mxPoint x="-1540.56" y="545" as="targetPoint" />
          </mxGeometry>
        </mxCell>
        <mxCell id="YSDsoSCHC7CGEY7AMJTM-157" value="&lt;span style=&quot;text-wrap-mode: nowrap;&quot;&gt;Mange&lt;/span&gt;" style="shape=rhombus;perimeter=rhombusPerimeter;whiteSpace=wrap;html=1;align=center;" vertex="1" parent="1">
          <mxGeometry x="-1600" y="576" width="120" height="60" as="geometry" />
        </mxCell>
        <mxCell id="YSDsoSCHC7CGEY7AMJTM-164" value="" style="endArrow=none;html=1;rounded=0;entryX=1;entryY=0.5;entryDx=0;entryDy=0;exitX=0;exitY=0.5;exitDx=0;exitDy=0;" edge="1" parent="1" source="YSDsoSCHC7CGEY7AMJTM-156" target="YSDsoSCHC7CGEY7AMJTM-133">
          <mxGeometry relative="1" as="geometry">
            <mxPoint x="-1643" y="468" as="sourcePoint" />
            <mxPoint x="-1603" y="403" as="targetPoint" />
          </mxGeometry>
        </mxCell>
        <mxCell id="YSDsoSCHC7CGEY7AMJTM-167" value="" style="endArrow=none;html=1;rounded=0;" edge="1" parent="1">
          <mxGeometry relative="1" as="geometry">
            <mxPoint x="-1430" y="489.13" as="sourcePoint" />
            <mxPoint x="-1570" y="490" as="targetPoint" />
          </mxGeometry>
        </mxCell>
        <mxCell id="YSDsoSCHC7CGEY7AMJTM-168" value="" style="endArrow=none;html=1;rounded=0;entryX=1;entryY=0.5;entryDx=0;entryDy=0;" edge="1" parent="1" target="YSDsoSCHC7CGEY7AMJTM-156">
          <mxGeometry relative="1" as="geometry">
            <mxPoint x="-1570" y="490" as="sourcePoint" />
            <mxPoint x="-1600" y="485" as="targetPoint" />
          </mxGeometry>
        </mxCell>
        <mxCell id="YSDsoSCHC7CGEY7AMJTM-169" value="&lt;span style=&quot;text-wrap-mode: nowrap;&quot;&gt;Access&lt;/span&gt;" style="shape=rhombus;perimeter=rhombusPerimeter;whiteSpace=wrap;html=1;align=center;" vertex="1" parent="1">
          <mxGeometry x="-1250" y="299" width="120" height="60" as="geometry" />
        </mxCell>
        <mxCell id="YSDsoSCHC7CGEY7AMJTM-170" value="" style="endArrow=none;html=1;rounded=0;entryX=0.589;entryY=-0.031;entryDx=0;entryDy=0;entryPerimeter=0;" edge="1" parent="1" target="YSDsoSCHC7CGEY7AMJTM-110">
          <mxGeometry relative="1" as="geometry">
            <mxPoint x="-1290" y="330" as="sourcePoint" />
            <mxPoint x="-1290" y="700" as="targetPoint" />
            <Array as="points" />
          </mxGeometry>
        </mxCell>
        <mxCell id="YSDsoSCHC7CGEY7AMJTM-173" value="" style="endArrow=none;html=1;rounded=0;entryX=0;entryY=0.5;entryDx=0;entryDy=0;" edge="1" parent="1" target="YSDsoSCHC7CGEY7AMJTM-169">
          <mxGeometry relative="1" as="geometry">
            <mxPoint x="-1290" y="330" as="sourcePoint" />
            <mxPoint x="-1240" y="530" as="targetPoint" />
            <Array as="points" />
          </mxGeometry>
        </mxCell>
        <mxCell id="YSDsoSCHC7CGEY7AMJTM-174" value="" style="endArrow=none;html=1;rounded=0;exitX=1;exitY=0.5;exitDx=0;exitDy=0;" edge="1" parent="1" source="YSDsoSCHC7CGEY7AMJTM-169">
          <mxGeometry relative="1" as="geometry">
            <mxPoint x="-1120" y="380" as="sourcePoint" />
            <mxPoint x="-520" y="330" as="targetPoint" />
            <Array as="points" />
          </mxGeometry>
        </mxCell>
        <mxCell id="YSDsoSCHC7CGEY7AMJTM-175" value="" style="endArrow=none;html=1;rounded=0;" edge="1" parent="1">
          <mxGeometry relative="1" as="geometry">
            <mxPoint x="-520" y="291" as="sourcePoint" />
            <mxPoint x="-520" y="330" as="targetPoint" />
            <Array as="points" />
          </mxGeometry>
        </mxCell>
        <mxCell id="YSDsoSCHC7CGEY7AMJTM-177" value="add" style="shape=rhombus;perimeter=rhombusPerimeter;whiteSpace=wrap;html=1;align=center;" vertex="1" parent="1">
          <mxGeometry x="-710" y="260" width="70" height="40" as="geometry" />
        </mxCell>
        <mxCell id="YSDsoSCHC7CGEY7AMJTM-178" value="" style="endArrow=none;html=1;rounded=0;entryX=1;entryY=0.5;entryDx=0;entryDy=0;exitX=0;exitY=0.75;exitDx=0;exitDy=0;" edge="1" parent="1" source="rF5V9aYuZ9NK1MrLlrQH-12" target="YSDsoSCHC7CGEY7AMJTM-177">
          <mxGeometry relative="1" as="geometry">
            <mxPoint x="-602" y="270" as="sourcePoint" />
            <mxPoint x="-630" y="292" as="targetPoint" />
            <Array as="points" />
          </mxGeometry>
        </mxCell>
        <mxCell id="YSDsoSCHC7CGEY7AMJTM-179" value="" style="endArrow=none;html=1;rounded=0;entryX=1;entryY=0.5;entryDx=0;entryDy=0;exitX=0;exitY=0.5;exitDx=0;exitDy=0;" edge="1" parent="1" source="YSDsoSCHC7CGEY7AMJTM-177">
          <mxGeometry relative="1" as="geometry">
            <mxPoint x="-700" y="278.85" as="sourcePoint" />
            <mxPoint x="-760" y="278.85" as="targetPoint" />
            <Array as="points" />
          </mxGeometry>
        </mxCell>
        <mxCell id="YSDsoSCHC7CGEY7AMJTM-180" value="M&lt;span style=&quot;color: rgba(0, 0, 0, 0); font-family: monospace; font-size: 0px; text-align: start;&quot;&gt;%3CmxGraphModel%3E%3Croot%3E%3CmxCell%20id%3D%220%22%2F%3E%3CmxCell%20id%3D%221%22%20parent%3D%220%22%2F%3E%3CmxCell%20id%3D%222%22%20value%3D%221%22%20style%3D%22text%3Bhtml%3D1%3Balign%3Dcenter%3BverticalAlign%3Dmiddle%3Bresizable%3D0%3Bpoints%3D%5B%5D%3Bautosize%3D1%3BstrokeColor%3Dnone%3BfillColor%3Dnone%3B%22%20vertex%3D%221%22%20parent%3D%221%22%3E%3CmxGeometry%20x%3D%22-620%22%20y%3D%22680%22%20width%3D%2230%22%20height%3D%2230%22%20as%3D%22geometry%22%2F%3E%3C%2FmxCell%3E%3C%2Froot%3E%3C%2FmxGraphModel%3E&lt;/span&gt;" style="text;html=1;align=center;verticalAlign=middle;resizable=0;points=[];autosize=1;strokeColor=none;fillColor=none;" vertex="1" parent="1">
          <mxGeometry x="-603" y="258" width="30" height="30" as="geometry" />
        </mxCell>
        <mxCell id="YSDsoSCHC7CGEY7AMJTM-181" value="1" style="text;html=1;align=center;verticalAlign=middle;resizable=0;points=[];autosize=1;strokeColor=none;fillColor=none;" vertex="1" parent="1">
          <mxGeometry x="-770" y="255" width="30" height="30" as="geometry" />
        </mxCell>
        <mxCell id="YSDsoSCHC7CGEY7AMJTM-182" value="add" style="shape=rhombus;perimeter=rhombusPerimeter;whiteSpace=wrap;html=1;align=center;" vertex="1" parent="1">
          <mxGeometry x="-440" y="239" width="120" height="60" as="geometry" />
        </mxCell>
        <mxCell id="YSDsoSCHC7CGEY7AMJTM-183" value="add" style="shape=rhombus;perimeter=rhombusPerimeter;whiteSpace=wrap;html=1;align=center;" vertex="1" parent="1">
          <mxGeometry x="190" y="81" width="120" height="60" as="geometry" />
        </mxCell>
        <mxCell id="YSDsoSCHC7CGEY7AMJTM-184" value="" style="endArrow=none;html=1;rounded=0;entryX=1;entryY=0.5;entryDx=0;entryDy=0;exitX=0;exitY=0.5;exitDx=0;exitDy=0;" edge="1" parent="1" source="YSDsoSCHC7CGEY7AMJTM-182" target="rF5V9aYuZ9NK1MrLlrQH-12">
          <mxGeometry relative="1" as="geometry">
            <mxPoint x="-470" y="300" as="sourcePoint" />
            <mxPoint x="-491" y="302" as="targetPoint" />
            <Array as="points" />
          </mxGeometry>
        </mxCell>
        <mxCell id="YSDsoSCHC7CGEY7AMJTM-185" value="" style="endArrow=none;html=1;rounded=0;entryX=1;entryY=0.5;entryDx=0;entryDy=0;exitX=0;exitY=0.35;exitDx=0;exitDy=0;exitPerimeter=0;" edge="1" parent="1">
          <mxGeometry relative="1" as="geometry">
            <mxPoint x="-240" y="269" as="sourcePoint" />
            <mxPoint x="-320" y="269" as="targetPoint" />
            <Array as="points" />
          </mxGeometry>
        </mxCell>
        <mxCell id="YSDsoSCHC7CGEY7AMJTM-186" value="M&lt;span style=&quot;color: rgba(0, 0, 0, 0); font-family: monospace; font-size: 0px; text-align: start;&quot;&gt;%3CmxGraphModel%3E%3Croot%3E%3CmxCell%20id%3D%220%22%2F%3E%3CmxCell%20id%3D%221%22%20parent%3D%220%22%2F%3E%3CmxCell%20id%3D%222%22%20value%3D%221%22%20style%3D%22text%3Bhtml%3D1%3Balign%3Dcenter%3BverticalAlign%3Dmiddle%3Bresizable%3D0%3Bpoints%3D%5B%5D%3Bautosize%3D1%3BstrokeColor%3Dnone%3BfillColor%3Dnone%3B%22%20vertex%3D%221%22%20parent%3D%221%22%3E%3CmxGeometry%20x%3D%22-620%22%20y%3D%22680%22%20width%3D%2230%22%20height%3D%2230%22%20as%3D%22geometry%22%2F%3E%3C%2FmxCell%3E%3C%2Froot%3E%3C%2FmxGraphModel%3E&lt;/span&gt;" style="text;html=1;align=center;verticalAlign=middle;resizable=0;points=[];autosize=1;strokeColor=none;fillColor=none;" vertex="1" parent="1">
          <mxGeometry x="-488" y="264" width="30" height="30" as="geometry" />
        </mxCell>
        <mxCell id="YSDsoSCHC7CGEY7AMJTM-187" value="M&lt;span style=&quot;color: rgba(0, 0, 0, 0); font-family: monospace; font-size: 0px; text-align: start;&quot;&gt;%3CmxGraphModel%3E%3Croot%3E%3CmxCell%20id%3D%220%22%2F%3E%3CmxCell%20id%3D%221%22%20parent%3D%220%22%2F%3E%3CmxCell%20id%3D%222%22%20value%3D%221%22%20style%3D%22text%3Bhtml%3D1%3Balign%3Dcenter%3BverticalAlign%3Dmiddle%3Bresizable%3D0%3Bpoints%3D%5B%5D%3Bautosize%3D1%3BstrokeColor%3Dnone%3BfillColor%3Dnone%3B%22%20vertex%3D%221%22%20parent%3D%221%22%3E%3CmxGeometry%20x%3D%22-620%22%20y%3D%22680%22%20width%3D%2230%22%20height%3D%2230%22%20as%3D%22geometry%22%2F%3E%3C%2FmxCell%3E%3C%2Froot%3E%3C%2FmxGraphModel%3E&lt;/span&gt;" style="text;html=1;align=center;verticalAlign=middle;resizable=0;points=[];autosize=1;strokeColor=none;fillColor=none;" vertex="1" parent="1">
          <mxGeometry x="-263" y="245" width="30" height="30" as="geometry" />
        </mxCell>
        <mxCell id="YSDsoSCHC7CGEY7AMJTM-194" value="" style="endArrow=none;html=1;rounded=0;entryX=0.5;entryY=1;entryDx=0;entryDy=0;" edge="1" parent="1" target="YSDsoSCHC7CGEY7AMJTM-183">
          <mxGeometry relative="1" as="geometry">
            <mxPoint x="250" y="270" as="sourcePoint" />
            <mxPoint x="210" y="230" as="targetPoint" />
            <Array as="points" />
          </mxGeometry>
        </mxCell>
        <mxCell id="YSDsoSCHC7CGEY7AMJTM-195" value="" style="endArrow=none;html=1;rounded=0;entryX=0.989;entryY=0.5;entryDx=0;entryDy=0;entryPerimeter=0;" edge="1" parent="1" target="rF5V9aYuZ9NK1MrLlrQH-15">
          <mxGeometry relative="1" as="geometry">
            <mxPoint x="250" y="270" as="sourcePoint" />
            <mxPoint x="250" y="250" as="targetPoint" />
            <Array as="points" />
          </mxGeometry>
        </mxCell>
        <mxCell id="YSDsoSCHC7CGEY7AMJTM-196" value="" style="endArrow=none;html=1;rounded=0;exitX=0.896;exitY=-0.012;exitDx=0;exitDy=0;exitPerimeter=0;" edge="1" parent="1" source="rF5V9aYuZ9NK1MrLlrQH-12">
          <mxGeometry relative="1" as="geometry">
            <mxPoint x="-488" y="250" as="sourcePoint" />
            <mxPoint x="-490" y="110" as="targetPoint" />
            <Array as="points" />
          </mxGeometry>
        </mxCell>
        <mxCell id="YSDsoSCHC7CGEY7AMJTM-197" value="" style="endArrow=none;html=1;rounded=0;exitX=0;exitY=0.5;exitDx=0;exitDy=0;" edge="1" parent="1" source="YSDsoSCHC7CGEY7AMJTM-183">
          <mxGeometry relative="1" as="geometry">
            <mxPoint x="-220" y="130" as="sourcePoint" />
            <mxPoint x="-490" y="110" as="targetPoint" />
            <Array as="points" />
          </mxGeometry>
        </mxCell>
        <mxCell id="YSDsoSCHC7CGEY7AMJTM-200" value="" style="endArrow=none;html=1;rounded=0;" edge="1" parent="1">
          <mxGeometry relative="1" as="geometry">
            <mxPoint x="-490" y="110" as="sourcePoint" />
            <mxPoint x="-490" y="10" as="targetPoint" />
            <Array as="points" />
          </mxGeometry>
        </mxCell>
        <mxCell id="YSDsoSCHC7CGEY7AMJTM-201" value="" style="endArrow=none;html=1;rounded=0;" edge="1" parent="1">
          <mxGeometry relative="1" as="geometry">
            <mxPoint x="-1410" y="10" as="sourcePoint" />
            <mxPoint x="-490" y="10" as="targetPoint" />
            <Array as="points" />
          </mxGeometry>
        </mxCell>
        <mxCell id="YSDsoSCHC7CGEY7AMJTM-202" value="" style="endArrow=none;html=1;rounded=0;" edge="1" parent="1">
          <mxGeometry relative="1" as="geometry">
            <mxPoint x="-1120.48" y="250" as="sourcePoint" />
            <mxPoint x="-1120.48" y="150" as="targetPoint" />
            <Array as="points" />
          </mxGeometry>
        </mxCell>
        <mxCell id="YSDsoSCHC7CGEY7AMJTM-203" value="" style="endArrow=none;html=1;rounded=0;" edge="1" parent="1">
          <mxGeometry relative="1" as="geometry">
            <mxPoint x="-1410" y="250" as="sourcePoint" />
            <mxPoint x="-1410" y="150" as="targetPoint" />
            <Array as="points" />
          </mxGeometry>
        </mxCell>
        <mxCell id="YSDsoSCHC7CGEY7AMJTM-204" value="Relationship" style="shape=rhombus;perimeter=rhombusPerimeter;whiteSpace=wrap;html=1;align=center;" vertex="1" parent="1">
          <mxGeometry x="-1470" y="90" width="120" height="60" as="geometry" />
        </mxCell>
        <mxCell id="YSDsoSCHC7CGEY7AMJTM-206" value="Relationship" style="shape=rhombus;perimeter=rhombusPerimeter;whiteSpace=wrap;html=1;align=center;" vertex="1" parent="1">
          <mxGeometry x="-1181" y="90" width="120" height="60" as="geometry" />
        </mxCell>
        <mxCell id="YSDsoSCHC7CGEY7AMJTM-209" value="" style="endArrow=none;html=1;rounded=0;" edge="1" parent="1">
          <mxGeometry relative="1" as="geometry">
            <mxPoint x="-1120" y="90" as="sourcePoint" />
            <mxPoint x="-1120" y="10" as="targetPoint" />
          </mxGeometry>
        </mxCell>
        <mxCell id="YSDsoSCHC7CGEY7AMJTM-211" value="" style="endArrow=none;html=1;rounded=0;exitX=0.5;exitY=0;exitDx=0;exitDy=0;" edge="1" parent="1" source="YSDsoSCHC7CGEY7AMJTM-204">
          <mxGeometry relative="1" as="geometry">
            <mxPoint x="-1320" y="65" as="sourcePoint" />
            <mxPoint x="-1410" y="10" as="targetPoint" />
          </mxGeometry>
        </mxCell>
        <mxCell id="YSDsoSCHC7CGEY7AMJTM-212" value="M&lt;span style=&quot;color: rgba(0, 0, 0, 0); font-family: monospace; font-size: 0px; text-align: start;&quot;&gt;%3CmxGraphModel%3E%3Croot%3E%3CmxCell%20id%3D%220%22%2F%3E%3CmxCell%20id%3D%221%22%20parent%3D%220%22%2F%3E%3CmxCell%20id%3D%222%22%20value%3D%221%22%20style%3D%22text%3Bhtml%3D1%3Balign%3Dcenter%3BverticalAlign%3Dmiddle%3Bresizable%3D0%3Bpoints%3D%5B%5D%3Bautosize%3D1%3BstrokeColor%3Dnone%3BfillColor%3Dnone%3B%22%20vertex%3D%221%22%20parent%3D%221%22%3E%3CmxGeometry%20x%3D%22-620%22%20y%3D%22680%22%20width%3D%2230%22%20height%3D%2230%22%20as%3D%22geometry%22%2F%3E%3C%2FmxCell%3E%3C%2Froot%3E%3C%2FmxGraphModel%3E&lt;/span&gt;" style="text;html=1;align=center;verticalAlign=middle;resizable=0;points=[];autosize=1;strokeColor=none;fillColor=none;" vertex="1" parent="1">
          <mxGeometry x="-515" y="220" width="30" height="30" as="geometry" />
        </mxCell>
        <mxCell id="YSDsoSCHC7CGEY7AMJTM-213" value="1" style="text;html=1;align=center;verticalAlign=middle;resizable=0;points=[];autosize=1;strokeColor=none;fillColor=none;" vertex="1" parent="1">
          <mxGeometry x="-1414" y="215" width="30" height="30" as="geometry" />
        </mxCell>
        <mxCell id="YSDsoSCHC7CGEY7AMJTM-214" value="1" style="text;html=1;align=center;verticalAlign=middle;resizable=0;points=[];autosize=1;strokeColor=none;fillColor=none;" vertex="1" parent="1">
          <mxGeometry x="-1147" y="221" width="30" height="30" as="geometry" />
        </mxCell>
        <mxCell id="YSDsoSCHC7CGEY7AMJTM-215" value="id" style="ellipse;whiteSpace=wrap;html=1;align=center;fontStyle=4;" vertex="1" parent="1">
          <mxGeometry x="-1023" y="570" width="53" height="26" as="geometry" />
        </mxCell>
        <mxCell id="YSDsoSCHC7CGEY7AMJTM-216" value="Name" style="ellipse;whiteSpace=wrap;html=1;align=center;" vertex="1" parent="1">
          <mxGeometry x="-1083" y="590" width="50" height="26" as="geometry" />
        </mxCell>
        <mxCell id="YSDsoSCHC7CGEY7AMJTM-222" value="" style="endArrow=none;html=1;rounded=0;entryX=0.168;entryY=0.007;entryDx=0;entryDy=0;exitX=1;exitY=1;exitDx=0;exitDy=0;entryPerimeter=0;" edge="1" parent="1" source="YSDsoSCHC7CGEY7AMJTM-216" target="YSDsoSCHC7CGEY7AMJTM-83">
          <mxGeometry relative="1" as="geometry">
            <mxPoint x="-1061" y="634.5699999999999" as="sourcePoint" />
            <mxPoint x="-1191" y="634.5699999999999" as="targetPoint" />
            <Array as="points" />
          </mxGeometry>
        </mxCell>
        <mxCell id="YSDsoSCHC7CGEY7AMJTM-223" value="" style="endArrow=none;html=1;rounded=0;entryX=0.394;entryY=-0.009;entryDx=0;entryDy=0;exitX=0.5;exitY=1;exitDx=0;exitDy=0;entryPerimeter=0;" edge="1" parent="1" source="YSDsoSCHC7CGEY7AMJTM-215" target="YSDsoSCHC7CGEY7AMJTM-83">
          <mxGeometry relative="1" as="geometry">
            <mxPoint x="-990" y="600" as="sourcePoint" />
            <mxPoint x="-932" y="627" as="targetPoint" />
            <Array as="points" />
          </mxGeometry>
        </mxCell>
        <mxCell id="YSDsoSCHC7CGEY7AMJTM-224" value="Id" style="ellipse;whiteSpace=wrap;html=1;align=center;fontStyle=4;" vertex="1" parent="1">
          <mxGeometry x="-1993" y="382" width="53" height="26" as="geometry" />
        </mxCell>
        <mxCell id="YSDsoSCHC7CGEY7AMJTM-225" value="Name" style="ellipse;whiteSpace=wrap;html=1;align=center;" vertex="1" parent="1">
          <mxGeometry x="-2033" y="418" width="100" height="40" as="geometry" />
        </mxCell>
        <mxCell id="YSDsoSCHC7CGEY7AMJTM-226" value="Description" style="ellipse;whiteSpace=wrap;html=1;align=center;" vertex="1" parent="1">
          <mxGeometry x="-2040" y="463" width="100" height="40" as="geometry" />
        </mxCell>
        <mxCell id="YSDsoSCHC7CGEY7AMJTM-228" value="Deadline" style="ellipse;whiteSpace=wrap;html=1;align=center;" vertex="1" parent="1">
          <mxGeometry x="-2033" y="513" width="100" height="40" as="geometry" />
        </mxCell>
        <mxCell id="YSDsoSCHC7CGEY7AMJTM-229" value="Example" style="ellipse;whiteSpace=wrap;html=1;align=center;" vertex="1" parent="1">
          <mxGeometry x="-2013" y="561" width="100" height="40" as="geometry" />
        </mxCell>
        <mxCell id="YSDsoSCHC7CGEY7AMJTM-230" value="" style="endArrow=none;html=1;rounded=0;exitX=1;exitY=0.5;exitDx=0;exitDy=0;" edge="1" parent="1" source="YSDsoSCHC7CGEY7AMJTM-225">
          <mxGeometry relative="1" as="geometry">
            <mxPoint x="-1633" y="518" as="sourcePoint" />
            <mxPoint x="-1853" y="458" as="targetPoint" />
          </mxGeometry>
        </mxCell>
        <mxCell id="YSDsoSCHC7CGEY7AMJTM-232" value="" style="endArrow=none;html=1;rounded=0;exitX=1;exitY=0.5;exitDx=0;exitDy=0;" edge="1" parent="1" source="YSDsoSCHC7CGEY7AMJTM-226">
          <mxGeometry relative="1" as="geometry">
            <mxPoint x="-1893" y="448" as="sourcePoint" />
            <mxPoint x="-1853" y="478" as="targetPoint" />
          </mxGeometry>
        </mxCell>
        <mxCell id="YSDsoSCHC7CGEY7AMJTM-233" value="" style="endArrow=none;html=1;rounded=0;exitX=1;exitY=0.5;exitDx=0;exitDy=0;entryX=0.029;entryY=1.003;entryDx=0;entryDy=0;entryPerimeter=0;" edge="1" parent="1" source="YSDsoSCHC7CGEY7AMJTM-228" target="YSDsoSCHC7CGEY7AMJTM-133">
          <mxGeometry relative="1" as="geometry">
            <mxPoint x="-1893" y="486" as="sourcePoint" />
            <mxPoint x="-1853" y="488" as="targetPoint" />
          </mxGeometry>
        </mxCell>
        <mxCell id="YSDsoSCHC7CGEY7AMJTM-234" value="" style="endArrow=none;html=1;rounded=0;entryX=0.25;entryY=1;entryDx=0;entryDy=0;exitX=1;exitY=0;exitDx=0;exitDy=0;" edge="1" parent="1" source="YSDsoSCHC7CGEY7AMJTM-229" target="YSDsoSCHC7CGEY7AMJTM-133">
          <mxGeometry relative="1" as="geometry">
            <mxPoint x="-1923" y="558" as="sourcePoint" />
            <mxPoint x="-1833" y="508" as="targetPoint" />
          </mxGeometry>
        </mxCell>
        <mxCell id="YSDsoSCHC7CGEY7AMJTM-235" value="" style="endArrow=none;html=1;rounded=0;exitX=1;exitY=1;exitDx=0;exitDy=0;entryX=0.25;entryY=0;entryDx=0;entryDy=0;" edge="1" parent="1" source="YSDsoSCHC7CGEY7AMJTM-224" target="YSDsoSCHC7CGEY7AMJTM-133">
          <mxGeometry relative="1" as="geometry">
            <mxPoint x="-1903" y="428" as="sourcePoint" />
            <mxPoint x="-1823" y="388" as="targetPoint" />
          </mxGeometry>
        </mxCell>
        <mxCell id="YSDsoSCHC7CGEY7AMJTM-236" value="Id" style="ellipse;whiteSpace=wrap;html=1;align=center;fontStyle=4;" vertex="1" parent="1">
          <mxGeometry x="-1462" y="432" width="50" height="18" as="geometry" />
        </mxCell>
        <mxCell id="YSDsoSCHC7CGEY7AMJTM-237" value="" style="endArrow=none;html=1;rounded=0;entryX=1;entryY=1;entryDx=0;entryDy=0;exitX=0.171;exitY=0.004;exitDx=0;exitDy=0;exitPerimeter=0;" edge="1" parent="1" source="YSDsoSCHC7CGEY7AMJTM-44" target="YSDsoSCHC7CGEY7AMJTM-236">
          <mxGeometry relative="1" as="geometry">
            <mxPoint x="-1430" y="480" as="sourcePoint" />
            <mxPoint x="-1270" y="480" as="targetPoint" />
          </mxGeometry>
        </mxCell>
        <mxCell id="YSDsoSCHC7CGEY7AMJTM-238" value="id" style="ellipse;whiteSpace=wrap;html=1;align=center;fontStyle=4;" vertex="1" parent="1">
          <mxGeometry x="-1260" y="780" width="53" height="26" as="geometry" />
        </mxCell>
        <mxCell id="YSDsoSCHC7CGEY7AMJTM-239" value="Name" style="ellipse;whiteSpace=wrap;html=1;align=center;" vertex="1" parent="1">
          <mxGeometry x="-1320" y="800" width="50" height="26" as="geometry" />
        </mxCell>
        <mxCell id="YSDsoSCHC7CGEY7AMJTM-240" value="" style="endArrow=none;html=1;rounded=0;exitX=0.5;exitY=0;exitDx=0;exitDy=0;" edge="1" parent="1" source="YSDsoSCHC7CGEY7AMJTM-239">
          <mxGeometry relative="1" as="geometry">
            <mxPoint x="-1330" y="850" as="sourcePoint" />
            <mxPoint x="-1300" y="740" as="targetPoint" />
          </mxGeometry>
        </mxCell>
        <mxCell id="YSDsoSCHC7CGEY7AMJTM-241" value="" style="endArrow=none;html=1;rounded=0;entryX=0.75;entryY=1;entryDx=0;entryDy=0;exitX=0;exitY=0;exitDx=0;exitDy=0;" edge="1" parent="1" source="YSDsoSCHC7CGEY7AMJTM-238" target="YSDsoSCHC7CGEY7AMJTM-110">
          <mxGeometry relative="1" as="geometry">
            <mxPoint x="-1290" y="828" as="sourcePoint" />
            <mxPoint x="-1285" y="770" as="targetPoint" />
          </mxGeometry>
        </mxCell>
        <mxCell id="YSDsoSCHC7CGEY7AMJTM-242" value="Code" style="ellipse;whiteSpace=wrap;html=1;align=center;fontStyle=4;" vertex="1" parent="1">
          <mxGeometry x="-115" y="690" width="75" height="30" as="geometry" />
        </mxCell>
        <mxCell id="YSDsoSCHC7CGEY7AMJTM-243" value="Name" style="ellipse;whiteSpace=wrap;html=1;align=center;" vertex="1" parent="1">
          <mxGeometry x="-330" y="675" width="63" height="20" as="geometry" />
        </mxCell>
        <mxCell id="YSDsoSCHC7CGEY7AMJTM-244" value="phone" style="ellipse;whiteSpace=wrap;html=1;align=center;" vertex="1" parent="1">
          <mxGeometry x="-330" y="705" width="60" height="20" as="geometry" />
        </mxCell>
        <mxCell id="YSDsoSCHC7CGEY7AMJTM-245" value="Email" style="ellipse;whiteSpace=wrap;html=1;align=center;" vertex="1" parent="1">
          <mxGeometry x="-335" y="731" width="65" height="19" as="geometry" />
        </mxCell>
        <mxCell id="YSDsoSCHC7CGEY7AMJTM-246" value="" style="endArrow=none;html=1;rounded=0;exitX=1;exitY=0.5;exitDx=0;exitDy=0;entryX=-0.009;entryY=0.164;entryDx=0;entryDy=0;entryPerimeter=0;" edge="1" parent="1" source="YSDsoSCHC7CGEY7AMJTM-243" target="YSDsoSCHC7CGEY7AMJTM-77">
          <mxGeometry relative="1" as="geometry">
            <mxPoint x="-310" y="680" as="sourcePoint" />
            <mxPoint x="-150" y="680" as="targetPoint" />
          </mxGeometry>
        </mxCell>
        <mxCell id="YSDsoSCHC7CGEY7AMJTM-247" value="" style="endArrow=none;html=1;rounded=0;exitX=1;exitY=0.5;exitDx=0;exitDy=0;entryX=0;entryY=0.5;entryDx=0;entryDy=0;" edge="1" parent="1" source="YSDsoSCHC7CGEY7AMJTM-244" target="YSDsoSCHC7CGEY7AMJTM-77">
          <mxGeometry relative="1" as="geometry">
            <mxPoint x="-270" y="713" as="sourcePoint" />
            <mxPoint x="-244" y="725" as="targetPoint" />
          </mxGeometry>
        </mxCell>
        <mxCell id="YSDsoSCHC7CGEY7AMJTM-248" value="" style="endArrow=none;html=1;rounded=0;exitX=1.011;exitY=0.353;exitDx=0;exitDy=0;entryX=0;entryY=0.75;entryDx=0;entryDy=0;exitPerimeter=0;" edge="1" parent="1" source="YSDsoSCHC7CGEY7AMJTM-245" target="YSDsoSCHC7CGEY7AMJTM-77">
          <mxGeometry relative="1" as="geometry">
            <mxPoint x="-260" y="744" as="sourcePoint" />
            <mxPoint x="-230" y="741" as="targetPoint" />
          </mxGeometry>
        </mxCell>
        <mxCell id="YSDsoSCHC7CGEY7AMJTM-249" value="" style="endArrow=none;html=1;rounded=0;exitX=1;exitY=0.5;exitDx=0;exitDy=0;entryX=0;entryY=0.5;entryDx=0;entryDy=0;" edge="1" parent="1" source="YSDsoSCHC7CGEY7AMJTM-77" target="YSDsoSCHC7CGEY7AMJTM-242">
          <mxGeometry relative="1" as="geometry">
            <mxPoint x="-140" y="708" as="sourcePoint" />
            <mxPoint x="-110" y="705" as="targetPoint" />
          </mxGeometry>
        </mxCell>
      </root>
    </mxGraphModel>
  </diagram>
</mxfile>
